# xmcd
#
# Track frame offsets:
#	150
#	9950
#	24816
#	34094
#	45847
#	62351
#	73420
#	82140
#	90440
#	104659
#	115182
#	129559
#	139792
#	149418
#	158997
#	166932
#	177692
#	191560
#
# Disc length: 2739 seconds
#
# Revision: 1
# Processed by: cddbd v1.5.2PL0 Copyright (c) Steve Scherf et al.
# Submitted via: audiograbber 1.83.01
#
DISCID=f20ab112
DTITLE=Dan Levenson - Traveling Home
DYEAR=2005
DGENRE=Bluegrass
TTITLE0=Red Haired Boy
TTITLE1=Leaving Home
TTITLE2=John Brown's Dream
TTITLE3=Dry and Dusty
TTITLE4=Camp Chase - Jenny Git Around
TTITLE5=Texas Gals
TTITLE6=John Lover's Gone
TTITLE7=Texas
TTITLE8=Milwaukee Blues
TTITLE9=Kentucky John Henry
TTITLE10=Lost Indian
TTITLE11=Boatman
TTITLE12=Durang's Hornpipe
TTITLE13=Monkey on a Dogcart
TTITLE14=Whistling Rufus
TTITLE15=Sandy Boys
TTITLE16=Arkansas Traveler - Mississippi Sawyer - Rock the Cradle Joe
TTITLE17=Banjo Tramp
EXTD=
EXTT0=
EXTT1=
EXTT2=
EXTT3=
EXTT4=
EXTT5=
EXTT6=
EXTT7=
EXTT8=
EXTT9=
EXTT10=
EXTT11=
EXTT12=
EXTT13=
EXTT14=
EXTT15=
EXTT16=
EXTT17=
PLAYORDER=
